<svg width="38" height="38" viewBox="0 0 38 38" fill="none" xmlns="http://www.w3.org/2000/svg">
<g filter="url(#filter0_dd_1083_50505)">
<rect x="3" y="2" width="32" height="32" rx="8" fill="white"/>
<rect x="3" y="2" width="32" height="32" rx="8" fill="#26C474"/>
<path d="M23.3396 12.1856C23.3396 11.7296 23.5006 11.3473 23.8225 11.0388C24.1444 10.7169 24.5333 10.556 24.9894 10.556C25.432 10.556 25.8142 10.7169 26.1361 11.0388C26.458 11.3473 26.619 11.7296 26.619 12.1856C26.619 12.6282 26.458 13.0105 26.1361 13.3324C25.8142 13.6543 25.432 13.8152 24.9894 13.8152C24.5333 13.8152 24.1444 13.6543 23.8225 13.3324C23.5006 13.0105 23.3396 12.6282 23.3396 12.1856ZM26.3373 25.444H23.6213V15.0626H26.3373V25.444Z" fill="white"/>
<path d="M17.6781 14.8614C18.8316 14.8614 19.7571 15.2638 20.4545 16.0686C21.1654 16.8733 21.5208 17.8994 21.5208 19.1468V25.444H18.8048V19.6296C18.8048 18.959 18.5902 18.4091 18.161 17.9799C17.7317 17.5507 17.1952 17.3361 16.5514 17.3361C15.8272 17.3361 15.237 17.5507 14.781 17.9799C14.3249 18.4091 14.0969 18.959 14.0969 19.6296V25.444H11.3809V10.556H14.0969V17.7183C14.3652 16.8331 14.8145 16.1356 15.4449 15.6259C16.0887 15.1163 16.8331 14.8614 17.6781 14.8614Z" fill="white"/>
</g>
<defs>
<filter id="filter0_dd_1083_50505" x="0" y="0" width="38" height="38" filterUnits="userSpaceOnUse" colorInterpolationFilters="sRGB">
<feFlood flood-opacity="0" result="BackgroundImageFix"/>
<feColorMatrix in="SourceAlpha" type="matrix" values="0 0 0 0 0 0 0 0 0 0 0 0 0 0 0 0 0 0 127 0" result="hardAlpha"/>
<feOffset dy="1"/>
<feGaussianBlur stdDeviation="1"/>
<feColorMatrix type="matrix" values="0 0 0 0 0.0627451 0 0 0 0 0.0941176 0 0 0 0 0.156863 0 0 0 0.06 0"/>
<feBlend mode="normal" in2="BackgroundImageFix" result="effect1_dropShadow_1083_50505"/>
<feColorMatrix in="SourceAlpha" type="matrix" values="0 0 0 0 0 0 0 0 0 0 0 0 0 0 0 0 0 0 127 0" result="hardAlpha"/>
<feOffset dy="1"/>
<feGaussianBlur stdDeviation="1.5"/>
<feColorMatrix type="matrix" values="0 0 0 0 0.0627451 0 0 0 0 0.0941176 0 0 0 0 0.156863 0 0 0 0.1 0"/>
<feBlend mode="normal" in2="effect1_dropShadow_1083_50505" result="effect2_dropShadow_1083_50505"/>
<feBlend mode="normal" in="SourceGraphic" in2="effect2_dropShadow_1083_50505" result="shape"/>
</filter>
</defs>
</svg>
